<?xml version="1.0" encoding="UTF-8"?>
<svg width="257px" height="248px" viewBox="0 0 257 248" version="1.1" xmlns="http://www.w3.org/2000/svg" xmlns:xlink="http://www.w3.org/1999/xlink">
    <!-- Generator: Sketch 48.2 (47327) - http://www.bohemiancoding.com/sketch -->
    <title>Group</title>
    <desc>Created with Sketch.</desc>
    <defs></defs>
    <g id="Page-1" stroke="none" stroke-width="1" fill="none" fill-rule="evenodd">
        <g id="Group" transform="translate(1.000000, 1.000000)" stroke="#FFFFFF">
            <path d="M76.9709969,226 C134.408611,226 180.970997,179.437614 180.970997,122 C180.970997,64.562386 134.408611,18 76.9709969,18 C19.5333829,18 50.1533868,64.562386 50.1533868,122 C50.1533868,179.437614 19.5333829,226 76.9709969,226 Z" id="Oval"></path>
            <path d="M97.9709969,246 C155.408611,246 201.970997,199.437614 201.970997,142 C201.970997,84.562386 155.408611,38 97.9709969,38 C40.5333829,38 22,84.562386 22,142 C22,199.437614 40.5333829,246 97.9709969,246 Z" id="Oval"></path>
            <path d="M117.970997,208 C175.408611,208 221.970997,161.437614 221.970997,104 C221.970997,46.562386 175.408611,0 117.970997,0 C60.5333829,0 -6.16093279e-15,40.562386 0,98 C-6.16093279e-15,155.437614 60.5333829,208 117.970997,208 Z" id="Oval"></path>
            <path d="M3,244 C16,193 107,119 115,116 C123,113 251,49 255,29" id="Path-2"></path>
        </g>
    </g>
</svg>