<?xml version="1.0" encoding="UTF-8"?>
<svg width="34px" height="40px" viewBox="0 0 34 40" version="1.1" xmlns="http://www.w3.org/2000/svg" xmlns:xlink="http://www.w3.org/1999/xlink">
    <!-- Generator: Sketch 48.2 (47327) - http://www.bohemiancoding.com/sketch -->
    <title>location</title>
    <desc>Created with Sketch.</desc>
    <defs></defs>
    <g id="Page-1" stroke="none" stroke-width="1" fill-rule="evenodd">
        <g id="location" fill-rule="nonzero">
            <g id="Group">
                <g id="Shape">
                    <path d="M5.3327381,28.6672619 C6.3587098,29.6932336 7.9776395,31.2461071 10.0350809,33.1862773 C10.1276287,33.273538 10.1276287,33.273538 10.2202,33.3607739 C11.5503323,34.6140777 12.9752909,35.9462556 14.4002244,37.2714265 C14.8989317,37.7352184 15.3620237,38.1650155 15.777636,38.550075 C16.0270492,38.7811533 16.205246,38.9460008 16.3003603,39.0338733 C16.6918782,39.3960998 17.3132502,39.3914848 17.7058797,39.0284541 C17.8016535,38.940076 17.9817549,38.7736425 18.2338295,38.5403159 C18.6538709,38.1515151 19.1218965,37.7174803 19.6259164,37.2490372 C21.0660327,35.9105729 22.5061761,34.5644444 23.8504945,33.2971891 C23.9520489,33.2014415 23.9520489,33.2014415 24.0535729,33.1056619 C26.0434301,31.2280902 27.6276531,29.7068707 28.6672619,28.6672619 C35.1109127,22.2236111 35.1109127,11.7763889 28.6672619,5.3327381 C22.2236111,-1.1109127 11.7763889,-1.1109127 5.3327381,5.3327381 C-1.1109127,11.7763889 -1.1109127,22.2236111 5.3327381,28.6672619 Z M6.0398449,6.0398449 C12.0929714,-0.0132816 21.9070286,-0.0132816 27.9601551,6.0398449 C34.0132816,12.0929714 34.0132816,21.9070286 27.9601551,27.9601551 C26.9291358,28.9911744 25.3505805,30.5069516 23.3672851,32.3783318 C23.2659362,32.4739463 23.2659362,32.4739463 23.1645519,32.5695335 C21.8221443,33.8349875 20.3836527,35.179572 18.945134,36.5165515 C18.4416316,36.9845137 17.9741008,37.4180895 17.5545403,37.8064452 C17.3028538,38.0394127 17.2157369,38.1198035 17.2157369,38.1198035 C17.1116955,38.2159423 16.9452946,38.2296388 16.8357052,38.141729 C16.8357052,38.141729 16.706321,38.0472663 16.4572657,37.8165197 C16.0420972,37.4318713 15.5794619,37.0024981 15.0812323,36.5391505 C13.6577742,35.2153516 12.2343414,33.8846002 10.905975,32.6329603 C10.8135485,32.5458609 10.8135485,32.5458609 10.7211494,32.4587403 C8.6704082,30.5248885 7.0570225,28.9773327 6.0398449,27.9601551 C-0.0132816,21.9070286 -0.0132816,12.0929714 6.0398449,6.0398449 Z M17,24.5 C21.1421356,24.5 24.5,21.1421356 24.5,17 C24.5,12.8578644 21.1421356,9.5 17,9.5 C12.8578644,9.5 9.5,12.8578644 9.5,17 C9.5,21.1421356 12.8578644,24.5 17,24.5 Z M17,23.5 C13.4101491,23.5 10.5,20.5898509 10.5,17 C10.5,13.4101491 13.4101491,10.5 17,10.5 C20.5898509,10.5 23.5,13.4101491 23.5,17 C23.5,20.5898509 20.5898509,23.5 17,23.5 Z"></path>
                </g>
            </g>
        </g>
    </g>
</svg>
