<?xml version="1.0" encoding="UTF-8"?>
<svg width="70px" height="90px" viewBox="0 0 70 90" version="1.1" xmlns="http://www.w3.org/2000/svg" xmlns:xlink="http://www.w3.org/1999/xlink">
    <!-- Generator: Sketch 48.2 (47327) - http://www.bohemiancoding.com/sketch -->
    <title></title>
    <desc>Created with Sketch.</desc>
    <defs></defs>
    <g id="Page-1" stroke="none" stroke-width="1" fill-rule="evenodd">
        <g id="noun_1211203_cc" fill-rule="nonzero">
            <g id="Group">
                <path d="M35.244,32.901 L57.64,20.406 C57.88,20.272 57.967,19.969 57.835,19.729 C57.786,19.641 57.716,19.573 57.634,19.529 L35.244,7.041 C35.094,6.956 34.908,6.956 34.758,7.041 L12.362,19.533 C12.203,19.621 12.105,19.788 12.105,19.97 C12.105,20.152 12.203,20.318 12.362,20.407 L34.758,32.902 C34.833,32.944 34.917,32.965 35.001,32.965 C35.085,32.965 35.168,32.943 35.244,32.901 Z M13.631,19.969 L35,8.05 L56.357,19.963 L51.722,22.473 L35.242,13.279 C35.092,13.194 34.906,13.195 34.756,13.279 L18.178,22.507 L13.631,19.969 Z M19.205,23.079 L35,14.288 L50.777,23.09 L35,31.891 L19.205,23.079 Z" id="Shape"></path>
                <path d="M68.887,19.534 L35.244,0.764 C35.094,0.679 34.908,0.679 34.758,0.764 L1.113,19.534 C0.954,19.622 0.856,19.789 0.856,19.971 L0.856,70.028 C0.856,70.209 0.954,70.376 1.113,70.465 L34.758,89.238 C34.833,89.279 34.917,89.3 35,89.3 C35.083,89.3 35.168,89.279 35.243,89.237 L68.887,70.464 C69.046,70.376 69.144,70.209 69.144,70.027 L69.144,19.97 C69.144,19.789 69.046,19.622 68.887,19.534 Z M35,1.773 L67.618,19.97 L35,38.169 L2.382,19.97 L35,1.773 Z M57.907,57.503 L57.816,32.756 L62.33,30.214 L62.33,66.821 L35.283,81.971 L7.489,66.339 L7.489,30.679 L12.105,33.157 L12.077,57.569 C12.072,57.597 12.07,57.625 12.07,57.653 L12.07,63.773 C12.07,63.773 12.07,63.774 12.07,63.775 C12.07,63.776 12.07,63.777 12.07,63.777 C12.071,63.899 12.115,64.009 12.188,64.096 C12.188,64.096 12.189,64.096 12.189,64.096 C12.209,64.12 12.231,64.141 12.255,64.161 C12.28,64.182 12.308,64.2 12.337,64.215 L35.04,76.724 C35.192,76.808 35.377,76.806 35.527,76.722 L57.674,64.208 C57.726,64.178 57.772,64.14 57.809,64.096 C57.809,64.096 57.809,64.095 57.811,64.095 C57.811,64.095 57.811,64.095 57.812,64.094 C57.813,64.094 57.813,64.093 57.813,64.093 C57.813,64.092 57.814,64.091 57.814,64.092 C57.815,64.092 57.815,64.092 57.815,64.092 C57.815,64.091 57.816,64.091 57.816,64.09 L57.817,64.09 C57.817,64.09 57.818,64.089 57.818,64.088 L57.819,64.087 C57.818,64.086 57.82,64.086 57.82,64.086 L57.821,64.086 C57.822,64.086 57.823,64.086 57.822,64.085 C57.822,64.085 57.823,64.084 57.823,64.084 C57.823,64.084 57.823,64.084 57.823,64.084 C57.824,64.084 57.824,64.083 57.824,64.083 C57.824,64.083 57.824,64.083 57.824,64.082 C57.837,64.077 57.826,64.081 57.826,64.081 C57.826,64.08 57.827,64.08 57.827,64.08 L57.828,64.079 C57.827,64.078 57.829,64.078 57.829,64.078 C57.841,64.075 57.831,64.077 57.831,64.077 C57.831,64.077 57.831,64.076 57.832,64.076 C57.832,64.076 57.832,64.076 57.832,64.076 L57.833,64.075 C57.833,64.075 57.834,64.074 57.834,64.074 C57.835,64.074 57.835,64.073 57.835,64.073 L57.836,64.072 C57.836,64.072 57.836,64.071 57.837,64.071 L57.838,64.07 C57.838,64.07 57.839,64.069 57.839,64.069 C57.84,64.068 57.84,64.068 57.84,64.067 C57.841,64.067 57.841,64.066 57.842,64.065 C57.853,64.049 57.863,64.032 57.872,64.014 C57.872,64.014 57.874,64.012 57.873,64.012 C57.873,64.012 57.873,64.011 57.874,64.011 C57.874,64.011 57.873,64.01 57.875,64.009 C57.875,64.009 57.875,64.008 57.876,64.007 C57.875,64.005 57.877,64.005 57.877,64.005 L57.877,64.004 L57.878,64.004 L57.878,64.003 C57.878,64.003 57.88,64.003 57.879,64.002 C57.881,64.001 57.88,64 57.88,64 C57.881,64 57.881,63.999 57.881,63.999 C57.881,63.999 57.882,63.998 57.882,63.998 L57.883,63.997 C57.883,63.997 57.883,63.997 57.883,63.997 C57.884,63.997 57.884,63.997 57.884,63.995 C57.883,63.995 57.885,63.994 57.885,63.994 C57.885,63.994 57.885,63.993 57.885,63.993 L57.886,63.993 C57.886,63.993 57.886,63.992 57.886,63.992 C57.886,63.992 57.886,63.992 57.887,63.991 C57.887,63.99 57.887,63.99 57.887,63.989 C57.889,63.988 57.888,63.988 57.888,63.987 C57.888,63.987 57.888,63.987 57.889,63.986 L57.889,63.985 C57.89,63.985 57.89,63.984 57.89,63.984 L57.89,63.983 C57.89,63.983 57.891,63.983 57.891,63.981 C57.891,63.979 57.892,63.98 57.892,63.979 C57.892,63.979 57.892,63.979 57.892,63.978 C57.892,63.978 57.893,63.977 57.893,63.976 C57.893,63.976 57.894,63.975 57.894,63.975 C57.894,63.975 57.893,63.974 57.895,63.973 C57.917,63.915 57.929,63.853 57.929,63.788 L57.929,57.67 C57.929,57.601 57.921,57.55 57.907,57.503 Z M19.326,66.924 L35.276,58.09 L50.664,67.021 L35.279,75.714 L19.326,66.924 Z M51.673,66.45 L35.533,57.082 C35.382,56.994 35.193,56.992 35.04,57.077 L18.291,66.353 L13.606,63.772 L35,51.985 L56.402,63.777 L51.673,66.45 Z M35,88.227 L1.856,69.734 L1.856,20.821 L34.5,39.035 L34.5,51.119 L13.07,62.926 L13.076,57.94 L29.638,48.564 C29.795,48.475 29.892,48.309 29.892,48.129 L29.892,41.872 C29.892,41.688 29.79,41.518 29.628,41.432 L7.225,29.402 C7.069,29.318 6.883,29.323 6.732,29.413 C6.582,29.503 6.489,29.666 6.489,29.842 L6.489,66.63 C6.489,66.811 6.587,66.977 6.744,67.066 L35.037,82.981 C35.113,83.023 35.197,83.045 35.282,83.045 C35.366,83.045 35.45,83.024 35.526,82.981 L63.074,67.551 C63.232,67.463 63.33,67.296 63.33,67.115 L63.33,29.359 C63.33,29.181 63.235,29.017 63.082,28.927 C62.93,28.837 62.739,28.836 62.585,28.923 L40.363,41.436 C40.211,41.522 40.114,41.681 40.108,41.856 L39.914,48.221 C39.908,48.408 40.008,48.583 40.172,48.674 L56.908,57.935 L56.927,62.924 L35.5,51.119 L35.5,39.035 L68.144,20.822 L68.144,69.734 L35,88.227 Z M13.078,56.79 L13.104,33.693 L28.893,42.17 L28.893,47.837 L13.078,56.79 Z M56.904,56.79 L40.923,47.947 L41.1,42.169 L56.819,33.318 L56.904,56.79 Z" id="Shape"></path>
            </g>
        </g>
    </g>
</svg>
