<?xml version="1.0" encoding="UTF-8"?>
<svg width="80px" height="62px" viewBox="0 0 80 62" version="1.1" xmlns="http://www.w3.org/2000/svg" xmlns:xlink="http://www.w3.org/1999/xlink">
    <!-- Generator: Sketch 48.2 (47327) - http://www.bohemiancoding.com/sketch -->
    <title>Link</title>
    <desc>Created with Sketch.</desc>
    <defs></defs>
    <g id="Page-1" stroke="none" stroke-width="1" fill-rule="evenodd">
        <g id="noun_569844_cc" transform="translate(0.000000, -1.000000)" fill-rule="nonzero">
            <g id="Group" transform="translate(0.000000, 0.637820)">
                <path d="M65.125,0.36218 C61.319295,0.36218 57.501429,1.79823 54.59375,4.70593 L46.875,12.42468 C46.5768258,12.6649607 46.4420346,13.0544085 46.5278804,13.4276017 C46.6137261,13.8007949 46.9051351,14.0922039 47.2783283,14.1780496 C47.6515215,14.2638954 48.0409693,14.1291042 48.28125,13.83093 L56,6.14343 C61.056353,1.08704 69.162417,1.08704 74.21875,6.14343 C79.275075,11.19961 79.275084,19.27465 74.21875,24.33093 L56,42.58093 C50.943675,47.63723 42.837591,47.63713 37.78125,42.58093 C32.724925,37.52443 32.724884,29.41858 37.78125,24.36218 L38.5,23.64343 C38.7513236,23.3866682 38.8465422,23.0153137 38.7497759,22.6692986 C38.6530095,22.3232835 38.3789653,22.0551967 38.0309073,21.9660576 C37.6828493,21.8769184 37.3136768,21.9802746 37.0625,22.23718 L36.375,22.95593 C30.559656,28.77135 30.559693,38.17178 36.375,43.98718 C42.190349,49.80248 51.590905,49.80258 57.40625,43.98718 L75.625,25.76843 C81.440376,19.95311 81.440385,10.52115 75.625,4.70593 C72.717331,1.79823 68.930705,0.36218 65.125,0.36218 Z M33.125,14.36218 C29.319284,14.36217 25.501422,15.79822 22.59375,18.70593 L4.375,36.95593 C-1.4403756,42.77123 -1.4403843,52.17198 4.375,57.98718 C10.190339,63.80258 19.590893,63.80258 25.40625,57.98718 L33.125,50.26843 C33.4231742,50.0281493 33.5579654,49.6387015 33.4721196,49.2655083 C33.3862739,48.8923151 33.0948649,48.6009061 32.7216717,48.5150604 C32.3484785,48.4292146 31.9590307,48.5640058 31.71875,48.86218 L24,56.54968 C18.943647,61.60608 10.837583,61.60608 5.78125,56.54968 C0.724925,51.49348 0.724916,43.41848 5.78125,38.36218 L24,20.14343 C29.056325,15.08704 37.162409,15.08713 42.21875,20.14343 C47.275072,25.19983 47.27511,33.27443 42.21875,38.33093 L41.5,39.04968 C41.2462926,39.3059878 41.1492821,39.67854 41.2457627,40.0260348 C41.3422433,40.3735296 41.6174369,40.6427407 41.966968,40.7315617 C42.316499,40.8203826 42.6868294,40.7152086 42.9375,40.45593 L43.625,39.76843 C49.44035,33.95313 49.44031,24.52133 43.625,18.70593 C40.717325,15.79828 36.930716,14.36219 33.125,14.36218 Z" id="Shape"></path>
            </g>
        </g>
    </g>
</svg>
