<?xml version="1.0" encoding="UTF-8"?>
<svg width="96px" height="76px" viewBox="0 0 96 76" version="1.1" xmlns="http://www.w3.org/2000/svg" xmlns:xlink="http://www.w3.org/1999/xlink">
    <!-- Generator: Sketch 48.2 (47327) - http://www.bohemiancoding.com/sketch -->
    <title>Website</title>
    <desc>Created with Sketch.</desc>
    <defs></defs>
    <g id="Page-1" stroke="none" stroke-width="1" fill-rule="evenodd">
        <g id="noun_236580_cc" fill-rule="nonzero">
            <g id="Group">
                <path d="M90.4,0.7 L5.8,0.7 C3,0.7 0.6,3.1 0.6,5.9 L0.6,67.5 C0.6,71.9 4.2,75.5 8.6,75.5 L29.9,75.5 L30.7,75.5 L65,75.5 L65.8,75.5 L87.5,75.5 C91.9,75.5 95.5,71.9 95.5,67.5 L95.5,5.8 C95.5,3 93.2,0.7 90.4,0.7 Z M1.5,5.7 C1.5,3.5 3.5,1.5 5.8,1.5 L90.4,1.5 C92.7,1.5 94.6,3.4 94.6,5.7 L94.6,14.1 L1.5,14.1 L1.5,5.7 Z M94.7,15.1 L94.7,21.3 L1.5,21.3 L1.5,15.1 L94.7,15.1 Z M8.7,74.6 C4.8,74.6 1.6,71.4 1.6,67.5 L1.6,22.1 L30,22.1 L30,74.7 L8.7,74.7 L8.7,74.6 Z M30.7,74.6 L30.7,22.1 L65,22.1 L65,74.7 L30.7,74.7 L30.7,74.6 Z M94.5,67.4 C94.6,69.3 93.9,71 92.6,72.4 C91.3,73.8 89.4,74.6 87.5,74.6 L65.8,74.6 L65.8,22.1 L94.7,22.1 L94.5,67.4 Z" id="Shape"></path>
                <path d="M22.8,6.2 C22,6.2 21.3,6.9 21.3,7.7 C21.3,8.5 22,9.2 22.8,9.2 C23.6,9.2 24.3,8.5 24.3,7.7 C24.3,6.9 23.6,6.2 22.8,6.2 Z M22.8,8.9 C22.1,8.9 21.6,8.4 21.6,7.7 C21.6,7 22.1,6.5 22.8,6.5 C23.5,6.5 24,7 24,7.7 C24,8.4 23.4,8.9 22.8,8.9 Z" id="Shape"></path>
                <path d="M38,36.4 L56,36.4 C56.2,36.4 56.3,36.3 56.3,36.1 C56.3,35.9 56.2,35.8 56,35.8 L38,35.8 C37.8,35.8 37.7,36 37.7,36.1 C37.7,36.2 37.8,36.4 38,36.4 Z" id="Shape"></path>
                <path d="M38,30.1 L60,30.1 C60.2,30.1 60.3,30 60.3,29.8 C60.3,29.6 60.1,29.5 60,29.5 L38,29.5 C37.8,29.5 37.7,29.6 37.7,29.8 C37.7,30 37.8,30.1 38,30.1 Z" id="Shape"></path>
                <path d="M60.1,42.3 L38,42.3 C37.8,42.3 37.7,42.4 37.7,42.6 C37.7,42.8 37.8,42.9 38,42.9 L60,42.9 C60.2,42.9 60.3,42.7 60.3,42.6 C60.4,42.3 60.2,42.3 60.1,42.3 Z" id="Shape"></path>
                <path d="M38.2,62 L59.2,62 C59.4,62 59.5,61.8 59.5,61.7 L59.5,48.7 C59.5,48.5 59.4,48.4 59.2,48.4 L38.2,48.4 C38,48.4 37.9,48.6 37.9,48.7 L37.9,61.5 C37.9,61.8 38.1,62 38.2,62 Z M38.6,49.2 L59,49.2 L59,61.3 L38.6,61.3 L38.6,49.2 Z" id="Shape"></path>
                <path d="M20.3,38.9 L26.9,38.9 L27.4,38.9 C27.6,38.9 27.7,38.8 27.7,38.6 L27.7,25.6 L27.7,25.5 C27.7,25.5 27.5,25.3 27.4,25.3 L20.2,25.3 C20.1,25.3 19.9,25.4 19.9,25.5 C19.9,25.5 19.9,25.5 19.9,25.6 L19.9,38.4 C20,38.7 20.1,38.9 20.3,38.9 Z M27.1,38.2 L26.9,38.2 L20.6,38.2 L20.6,26.1 L26.9,26.1 L27.1,26.1 L27.1,38.2 Z" id="Shape"></path>
                <path d="M27.4,42.3 L26.9,42.3 L20.3,42.3 C20.1,42.3 20,42.5 20,42.6 L20,47.7 C20,47.9 20.1,48 20.3,48 L26.9,48 L27.4,48 C27.6,48 27.7,47.9 27.7,47.7 L27.7,42.4 C27.8,42.4 27.6,42.3 27.4,42.3 Z M27.1,47.4 L26.9,47.4 L20.6,47.4 L20.6,42.9 L26.9,42.9 L27.1,42.9 L27.1,47.4 Z" id="Shape"></path>
                <path d="M60.1,68 L38,68 C37.8,68 37.7,68.2 37.7,68.3 C37.7,68.5 37.8,68.6 38,68.6 L60,68.6 C60.2,68.6 60.3,68.5 60.3,68.3 C60.4,68 60.2,68 60.1,68 Z" id="Shape"></path>
                <g transform="translate(7.000000, 6.000000)" id="Shape">
                    <path d="M1.8,0.2 C1,0.2 0.3,0.9 0.3,1.7 C0.3,2.5 1,3.2 1.8,3.2 C2.6,3.2 3.3,2.5 3.3,1.7 C3.3,0.9 2.7,0.2 1.8,0.2 Z M1.8,2.9 C1.1,2.9 0.6,2.4 0.6,1.7 C0.6,1 1.1,0.5 1.8,0.5 C2.5,0.5 3,1 3,1.7 C3,2.4 2.5,2.9 1.8,2.9 Z"></path>
                    <path d="M8.7,0.2 C7.9,0.2 7.2,0.9 7.2,1.7 C7.2,2.5 7.9,3.2 8.7,3.2 C9.5,3.2 10.2,2.5 10.2,1.7 C10.2,0.9 9.6,0.2 8.7,0.2 Z M8.7,2.9 C8,2.9 7.5,2.4 7.5,1.7 C7.5,1 8,0.5 8.7,0.5 C9.4,0.5 9.9,1 9.9,1.7 C9.9,2.4 9.4,2.9 8.7,2.9 Z"></path>
                </g>
            </g>
        </g>
    </g>
</svg>
